<?xml version="1.0" encoding="iso-8859-1"?>
<!-- Generator: Adobe Illustrator 19.0.0, SVG Export Plug-In . SVG Version: 6.00 Build 0)  -->
<svg version="1.1" id="Capa_1" xmlns="http://www.w3.org/2000/svg" xmlns:xlink="http://www.w3.org/1999/xlink" x="0px" y="0px"
	 viewBox="0 0 480.114 480.114" style="enable-background:new 0 0 480.114 480.114;" xml:space="preserve">
<g>
	<g>
		<path d="M314.408,82.615c-10.492-3.211-12.336-4.703-12.336-10c0.101-5.43,4.578-9.755,10.008-9.668
			c5.431-0.087,9.907,4.238,10.008,9.668h16c-0.182-14.364-11.974-25.861-26.337-25.679c-14.107,0.179-25.5,11.571-25.679,25.679
			c0,18.066,14.238,22.418,23.66,25.301c10.508,3.215,12.356,4.715,12.356,10.031c-0.187,5.527-4.819,9.857-10.346,9.67
			c-5.264-0.178-9.49-4.403-9.67-9.666h-16c0.183,14.364,11.975,25.86,26.339,25.677c14.107-0.18,25.499-11.573,25.677-25.681
			C338.088,89.857,323.838,85.498,314.408,82.615z"/>
	</g>
</g>
<g>
	<g>
		<path d="M472.08,232.006h-240c-4.418,0-8,3.582-8,8v232c0,4.418,3.582,8,8,8h240c4.418,0,8-3.582,8-8v-232
			C480.08,235.587,476.498,232.006,472.08,232.006z M400.08,248.006h24v28c0,6.627-5.373,12-12,12c-6.627,0-12-5.373-12-12V248.006z
			 M360.08,248.006h24v28c0,6.627-5.373,12-12,12c-6.627,0-12-5.373-12-12V248.006z M320.08,248.006h24v28c0,6.627-5.373,12-12,12
			c-6.627,0-12-5.373-12-12V248.006z M280.08,248.006h24v28c0,6.627-5.373,12-12,12c-6.627,0-12-5.373-12-12V248.006z
			 M240.08,248.006h24v28c0,6.627-5.373,12-12,12c-6.627,0-12-5.373-12-12V248.006z M320.08,464.006h-48v-80h48V464.006z
			 M464.08,464.006h-128v-88c0-4.418-3.582-8-8-8h-64c-4.418,0-8,3.582-8,8v88h-16V301.197c10.763,5.27,23.697,2.983,32-5.658
			c10.709,11.046,28.344,11.319,39.39,0.61c0.207-0.2,0.41-0.404,0.61-0.61c10.709,11.046,28.344,11.319,39.39,0.61
			c0.207-0.2,0.41-0.404,0.61-0.61c10.709,11.046,28.344,11.319,39.39,0.61c0.207-0.2,0.41-0.404,0.61-0.61
			c10.709,11.046,28.344,11.319,39.39,0.61c0.207-0.2,0.41-0.404,0.61-0.61c8.303,8.641,21.237,10.928,32,5.658V464.006z
			 M464.08,276.006c0,6.627-5.373,12-12,12c-6.627,0-12-5.373-12-12v-28h24V276.006z"/>
	</g>
</g>
<g>
	<g>
		<path d="M174.69,296.006c-3.641,0-6.822,2.458-7.742,5.98l-6.787,26.02H16.08c-4.419,0.001-8.001,3.585-8,8.004
			c0,0.699,0.092,1.395,0.273,2.07l21.465,80c0.938,3.496,4.107,5.927,7.727,5.926H52.08v9.474
			c-12.497,4.418-19.046,18.131-14.627,30.627s18.131,19.046,30.627,14.627c12.497-4.418,19.046-18.131,14.627-30.627
			c-2.416-6.835-7.793-12.211-14.627-14.627v-9.474h48v9.474c-12.497,4.418-19.046,18.131-14.627,30.627
			c4.418,12.497,18.131,19.046,30.627,14.627c12.497-4.418,19.046-18.131,14.627-30.627c-2.416-6.835-7.793-12.211-14.627-14.627
			v-9.474h12.797c3.62,0.001,6.789-2.43,7.727-5.926l28.266-106.074h27.211v-16H174.69z M60.08,464.006c-4.418,0-8-3.582-8-8
			s3.582-8,8-8s8,3.582,8,8C68.074,460.422,64.496,464,60.08,464.006z M124.08,464.006c-4.418,0-8-3.582-8-8s3.582-8,8-8
			s8,3.582,8,8C132.074,460.422,128.496,464,124.08,464.006z M138.74,408.006H43.682l-17.172-64h129.402L138.74,408.006z"/>
	</g>
</g>
<g>
	<g>
		<path d="M450.424,170.35l-18.344,18.344V88.006c0-4.418-3.582-8-8-8h-40.472c-4.401-39.504-39.993-67.96-79.497-63.559
			c-33.438,3.725-59.833,30.121-63.559,63.559h-64.877c-4.418-48.4-47.236-84.054-95.636-79.636
			C31.639,4.788-4.015,47.606,0.404,96.006c4.418,48.4,47.236,84.054,95.636,79.636c42.28-3.86,75.776-37.356,79.636-79.636h64.877
			c4.401,39.504,39.993,67.96,79.497,63.559c33.438-3.725,59.833-30.121,63.559-63.559h32.472v92.687l-18.344-18.344l-11.312,11.313
			l32,32c3.122,3.124,8.186,3.125,11.31,0.003c0.001-0.001,0.002-0.002,0.003-0.003l32-32L450.424,170.35z M120.08,152.408
			c-20.131,10.131-43.869,10.131-64,0v-15.253c0.016-13.883,11.266-25.133,25.148-25.148h13.703
			c13.883,0.016,25.133,11.266,25.148,25.148V152.408z M64.08,72.006c0-13.255,10.745-24,24-24s24,10.745,24,24
			c-0.014,13.249-10.751,23.986-24,24C74.825,96.006,64.08,85.261,64.08,72.006z M141.746,135.852
			c-1.782,1.992-3.673,3.884-5.666,5.666v-4.363c-0.052-14.856-8.134-28.522-21.127-35.725
			c16.364-14.842,17.598-40.138,2.756-56.502c-14.842-16.364-40.138-17.598-56.502-2.756S43.609,82.31,58.451,98.674
			c0.873,0.963,1.793,1.883,2.756,2.756c-12.993,7.203-21.074,20.869-21.127,35.724v4.364
			c-29.639-26.51-32.175-72.027-5.666-101.666c26.51-29.639,72.027-32.175,101.666-5.666S168.255,106.213,141.746,135.852z
			 M312.08,144.006c-30.928,0-56-25.072-56-56c0-30.928,25.072-56,56-56c30.928,0,56,25.072,56,56
			C368.046,118.919,342.994,143.971,312.08,144.006z"/>
	</g>
</g>
<g>
	<g>
		<path d="M93.736,194.35c-3.122-3.124-8.186-3.125-11.309-0.003c-0.001,0.001-0.002,0.002-0.003,0.003l-32,32l11.313,11.312
			l18.344-18.344v92.688h16v-92.688l18.344,18.344l11.312-11.313L93.736,194.35z"/>
	</g>
</g>
<g>
	<g>
		<path d="M440.08,320.006h-80c-4.418,0-8,3.582-8,8v56c0,4.418,3.582,8,8,8h80c4.418,0,8-3.582,8-8v-56
			C448.08,323.587,444.498,320.006,440.08,320.006z M432.08,376.006h-64v-40h64V376.006z"/>
	</g>
</g>
<g>
</g>
<g>
</g>
<g>
</g>
<g>
</g>
<g>
</g>
<g>
</g>
<g>
</g>
<g>
</g>
<g>
</g>
<g>
</g>
<g>
</g>
<g>
</g>
<g>
</g>
<g>
</g>
<g>
</g>
</svg>
