<svg height="479pt" viewBox="0 0 479.9763 479" width="479pt" xmlns="http://www.w3.org/2000/svg"><path d="m367.914062 152.355469h-256c-13.253906 0-24 10.746093-24 24v192c0 13.253906 10.746094 24 24 24h88v40h-40c-13.253906 0-24 10.746093-24 24 0 13.253906 10.746094 24 24 24h160c13.253907 0 24-10.746094 24-24 0-13.253907-10.746093-24-24-24h-40v-40h88c13.253907 0 24-10.746094 24-24v-192c0-13.253907-10.746093-24-24-24zm-40 304c0 4.417969-3.582031 8-8 8h-160c-4.417968 0-8-3.582031-8-8s3.582032-8 8-8h160c4.417969 0 8 3.582031 8 8zm-64-24h-48v-40h48zm112-64c0 4.417969-3.582031 8-8 8h-256c-4.417968 0-8-3.582031-8-8v-192c0-4.417969 3.582032-8 8-8h256c4.417969 0 8 3.582031 8 8zm0 0"/><path d="m359.914062 176.355469h-240c-4.417968 0-8 3.582031-8 8v160c0 4.417969 3.582032 8 8 8h240c4.417969 0 8-3.582031 8-8v-160c0-4.417969-3.582031-8-8-8zm-8 160h-224v-144h224zm0 0"/><path d="m382.746094 128.578125c.777344-5.371094 1.167968-10.792969 1.167968-16.222656-.0625-53.273438-37.644531-99.128907-89.867187-109.660157-52.222656-10.527343-104.632813 17.1875-125.332031 66.277344-25.5625-17.488281-59.4375-16.683594-84.140625 1.992188-24.707031 18.671875-34.71875 51.042968-24.867188 80.40625-36.355469 14.871094-59.996093 50.371094-59.70312475 89.648437.29296875 39.277344 24.46093775 74.421875 61.03124975 88.75 4.117188 1.605469 8.753906-.433593 10.359375-4.550781s-.433593-8.757812-4.550781-10.359375c-31.734375-12.425781-52.125-43.574219-50.824219-77.625s24.011719-63.550781 56.597657-73.519531c2.234374-.6875 4.058593-2.3125 4.988281-4.457032.933593-2.140624.882812-4.585937-.140625-6.6875-3.667969-7.542968-5.566406-15.824218-5.550782-24.214843.015626-22.472657 13.453126-42.761719 34.140626-51.546875 20.6875-8.78125 44.617187-4.355469 60.796874 11.242187 2.011719 1.933594 4.882813 2.679688 7.578126 1.96875 2.699218-.710937 4.832031-2.777343 5.628906-5.449219 15.03125-49.664062 66.808594-78.394531 116.902344-64.871093 50.097656 13.523437 80.378906 64.40625 68.378906 114.886719-.59375 2.496093.046875 5.121093 1.71875 7.066406 1.65625 1.953125 4.160156 2.980468 6.710937 2.75.722657-.046875 1.386719-.046875 2.144531-.046875 41.453126-.039063 77.308594 28.855469 86.085938 69.367187 8.773438 40.511719-11.910156 81.65625-49.660156 98.777344-2.667969 1.140625-4.507813 3.636719-4.808594 6.523438-.300781 2.882812.980469 5.707031 3.355469 7.375 2.371093 1.667968 5.460937 1.921874 8.074219.660156 43.433593-19.714844 67.886718-66.445313 59.324218-113.367188-8.558594-46.921875-47.941406-82.007812-95.539062-85.113281zm0 0"/><path d="m170.25 286.003906c.742188.738282 1.617188 1.324219 2.585938 1.726563 1.96875.832031 4.1875.832031 6.160156 0 .964844-.402344 1.84375-.988281 2.582031-1.726563l22.617187-22.625c3.03125-3.140625 2.988282-8.128906-.097656-11.214844-3.085937-3.085937-8.078125-3.128906-11.214844-.097656l-8.59375 8.601563c1.863282-20.515625 19.027344-36.246094 39.625-36.3125h56c4.417969 0 8-3.582031 8-8s-3.582031-8-8-8h-56c-29.65625.035156-54.144531 23.191406-55.839843 52.800781l-9.128907-9.128906c-3.136718-3.03125-8.128906-2.988282-11.214843.097656-3.085938 3.085938-3.128907 8.074219-.097657 11.214844zm0 0"/><path d="m275.632812 257.332031c-2.078124 2.007813-2.914062 4.980469-2.179687 7.777344.730469 2.796875 2.917969 4.984375 5.714844 5.714844 2.796875.734375 5.769531-.101563 7.777343-2.179688l8.96875-8.96875v4.679688c-.027343 22.078125-17.917968 39.972656-40 40h-56c-4.417968 0-8 3.582031-8 8s3.582032 8 8 8h56c30.914063-.035157 55.964844-25.085938 56-56v-4.679688l8.96875 8.96875c2.007813 2.078125 4.984376 2.914063 7.78125 2.179688 2.796876-.730469 4.980469-2.917969 5.710938-5.714844.734375-2.796875-.101562-5.769531-2.179688-7.777344l-22.617187-22.625c-1.5-1.503906-3.539063-2.351562-5.664063-2.351562s-4.164062.847656-5.664062 2.351562zm0 0"/></svg>